<?xml version="1.0" encoding="UTF-8" standalone="no"?>
<!-- Created with Inkscape (http://www.inkscape.org/) -->

<svg
   xmlns:dc="http://purl.org/dc/elements/1.1/"
   xmlns:cc="http://creativecommons.org/ns#"
   xmlns:rdf="http://www.w3.org/1999/02/22-rdf-syntax-ns#"
   xmlns:svg="http://www.w3.org/2000/svg"
   xmlns="http://www.w3.org/2000/svg"
   xmlns:sodipodi="http://sodipodi.sourceforge.net/DTD/sodipodi-0.dtd"
   xmlns:inkscape="http://www.inkscape.org/namespaces/inkscape"
   width="210mm"
   height="297mm"
   viewBox="0 0 210 297"
   version="1.1"
   id="svg8758"
   inkscape:version="0.92.5 (2060ec1f9f, 2020-04-08)"
   sodipodi:docname="SpiralOfFun-cards.svg">
  <defs
     id="defs8752" />
  <sodipodi:namedview
     id="base"
     pagecolor="#ffffff"
     bordercolor="#666666"
     borderopacity="1.0"
     inkscape:pageopacity="0.0"
     inkscape:pageshadow="2"
     inkscape:zoom="2.9592028"
     inkscape:cx="64.657013"
     inkscape:cy="138.92866"
     inkscape:document-units="mm"
     inkscape:current-layer="layer1"
     showgrid="false"
     showguides="true"
     inkscape:guide-bbox="true"
     inkscape:window-width="1541"
     inkscape:window-height="791"
     inkscape:window-x="0"
     inkscape:window-y="0"
     inkscape:window-maximized="0">
    <sodipodi:guide
       position="0,226.78572"
       orientation="1,0"
       id="guide9303"
       inkscape:locked="false"
       inkscape:label=""
       inkscape:color="rgb(0,0,255)" />
    <sodipodi:guide
       position="105,217.71429"
       orientation="1,0"
       id="guide9305"
       inkscape:locked="false"
       inkscape:label=""
       inkscape:color="rgb(0,0,255)" />
    <sodipodi:guide
       position="210,329.59525"
       orientation="1,0"
       id="guide9307"
       inkscape:locked="false"
       inkscape:label=""
       inkscape:color="rgb(0,0,255)" />
    <sodipodi:guide
       position="-415.7738,0"
       orientation="0,1"
       id="guide9309"
       inkscape:locked="false"
       inkscape:label=""
       inkscape:color="rgb(0,0,255)" />
    <sodipodi:guide
       position="-309.94047,49.5"
       orientation="0,1"
       id="guide9311"
       inkscape:locked="false"
       inkscape:label=""
       inkscape:color="rgb(0,0,255)" />
    <sodipodi:guide
       position="-173.86904,99"
       orientation="0,1"
       id="guide9313"
       inkscape:locked="false"
       inkscape:label=""
       inkscape:color="rgb(0,0,255)" />
    <sodipodi:guide
       position="-48.555002,148.5"
       orientation="0,1"
       id="guide9315"
       inkscape:locked="false"
       inkscape:label=""
       inkscape:color="rgb(0,0,255)" />
    <sodipodi:guide
       position="-161.01785,247.5"
       orientation="0,1"
       id="guide9319"
       inkscape:locked="false"
       inkscape:label=""
       inkscape:color="rgb(0,0,255)" />
    <sodipodi:guide
       position="308.42856,198"
       orientation="0,1"
       id="guide9321"
       inkscape:locked="false"
       inkscape:label=""
       inkscape:color="rgb(0,0,255)" />
    <sodipodi:guide
       position="278.94642,297"
       orientation="0,1"
       id="guide9323"
       inkscape:locked="false"
       inkscape:label=""
       inkscape:color="rgb(0,0,255)" />
  </sodipodi:namedview>
  <metadata
     id="metadata8755">
    <rdf:RDF>
      <cc:Work
         rdf:about="">
        <dc:format>image/svg+xml</dc:format>
        <dc:type
           rdf:resource="http://purl.org/dc/dcmitype/StillImage" />
        <dc:title />
      </cc:Work>
    </rdf:RDF>
  </metadata>
  <g
     inkscape:label="Layer 1"
     inkscape:groupmode="layer"
     id="layer1">
    <rect
       style="opacity:1;fill:#ffffff;fill-opacity:1;stroke:#000000;stroke-width:0.2;stroke-miterlimit:4;stroke-dasharray:0.2, 0.8;stroke-dashoffset:0"
       id="rect9613"
       width="105"
       height="49.499996"
       x="0"
       y="247.5" />
    <rect
       y="247.5"
       x="105"
       height="49.499996"
       width="105"
       id="rect9615"
       style="opacity:1;fill:#ffffff;fill-opacity:1;stroke:#000000;stroke-width:0.2;stroke-miterlimit:4;stroke-dasharray:0.2, 0.8;stroke-dashoffset:0" />
    <rect
       y="197.99998"
       x="-2.7551107e-07"
       height="49.499996"
       width="105"
       id="rect9617"
       style="opacity:1;fill:#ffffff;fill-opacity:1;stroke:#000000;stroke-width:0.2;stroke-miterlimit:4;stroke-dasharray:0.2,0.8;stroke-dashoffset:0" />
    <rect
       style="opacity:1;fill:#ffffff;fill-opacity:1;stroke:#000000;stroke-width:0.2;stroke-miterlimit:4;stroke-dasharray:0.2, 0.8;stroke-dashoffset:0"
       id="rect9619"
       width="105"
       height="49.499996"
       x="105"
       y="198" />
    <rect
       y="148.5"
       x="0"
       height="49.499996"
       width="105"
       id="rect9621"
       style="opacity:1;fill:#ffffff;fill-opacity:1;stroke:#000000;stroke-width:0.2;stroke-miterlimit:4;stroke-dasharray:0.2, 0.8;stroke-dashoffset:0" />
    <rect
       style="opacity:1;fill:#ffffff;fill-opacity:1;stroke:#000000;stroke-width:0.2;stroke-miterlimit:4;stroke-dasharray:0.2, 0.8;stroke-dashoffset:0"
       id="rect9623"
       width="105"
       height="49.499996"
       x="105"
       y="148.5" />
    <rect
       style="opacity:1;fill:#ffffff;fill-opacity:1;stroke:#000000;stroke-width:0.2;stroke-miterlimit:4;stroke-dasharray:0.2, 0.8;stroke-dashoffset:0"
       id="rect9625"
       width="105"
       height="49.499996"
       x="0"
       y="99" />
    <rect
       y="99"
       x="105"
       height="49.499996"
       width="105"
       id="rect9627"
       style="opacity:1;fill:#ffffff;fill-opacity:1;stroke:#000000;stroke-width:0.2;stroke-miterlimit:4;stroke-dasharray:0.2, 0.8;stroke-dashoffset:0" />
    <rect
       style="opacity:1;fill:#ffffff;fill-opacity:1;stroke:#000000;stroke-width:0.2;stroke-miterlimit:4;stroke-dasharray:0.2, 0.8;stroke-dashoffset:0"
       id="rect9629"
       width="105"
       height="49.499996"
       x="0"
       y="49.5" />
    <rect
       y="49.5"
       x="105"
       height="49.499996"
       width="105"
       id="rect9631"
       style="opacity:1;fill:#ffffff;fill-opacity:1;stroke:#000000;stroke-width:0.2;stroke-miterlimit:4;stroke-dasharray:0.2, 0.8;stroke-dashoffset:0" />
    <rect
       y="7.792911e-07"
       x="0"
       height="49.499996"
       width="105"
       id="rect9633"
       style="opacity:1;fill:#ffffff;fill-opacity:1;stroke:#000000;stroke-width:0.2;stroke-miterlimit:4;stroke-dasharray:0.2, 0.8;stroke-dashoffset:0" />
    <rect
       style="opacity:1;fill:#ffffff;fill-opacity:1;stroke:#000000;stroke-width:0.2;stroke-miterlimit:4;stroke-dasharray:0.2, 0.8;stroke-dashoffset:0"
       id="rect9635"
       width="105"
       height="49.499996"
       x="105"
       y="7.7929116e-07" />
    <text
       xml:space="preserve"
       style="font-style:normal;font-weight:normal;font-size:3.96875px;line-height:6.61458302px;font-family:sans-serif;letter-spacing:0px;word-spacing:0px;fill:#000000;fill-opacity:1;stroke:none;stroke-width:0.26458332px;stroke-linecap:butt;stroke-linejoin:miter;stroke-opacity:1"
       x="52.537788"
       y="28.594894"
       id="text9329"><tspan
         sodipodi:role="line"
         id="tspan9327"
         x="52.537788"
         y="28.594894"
         style="text-align:center;text-anchor:middle;stroke-width:0.26458332px">Skip next turn.</tspan></text>
    <text
       id="text9361"
       y="28.594894"
       x="157.53778"
       style="font-style:normal;font-weight:normal;font-size:3.96875px;line-height:6.61458302px;font-family:sans-serif;letter-spacing:0px;word-spacing:0px;fill:#000000;fill-opacity:1;stroke:none;stroke-width:0.26458332px;stroke-linecap:butt;stroke-linejoin:miter;stroke-opacity:1"
       xml:space="preserve"><tspan
         style="text-align:center;text-anchor:middle;stroke-width:0.26458332px"
         y="28.594894"
         x="157.53778"
         id="tspan9359"
         sodipodi:role="line">Take another card.</tspan></text>
    <text
       xml:space="preserve"
       style="font-style:normal;font-weight:normal;font-size:3.96875px;line-height:6.61458302px;font-family:sans-serif;letter-spacing:0px;word-spacing:0px;fill:#000000;fill-opacity:1;stroke:none;stroke-width:0.26458332px;stroke-linecap:butt;stroke-linejoin:miter;stroke-opacity:1"
       x="157.5533"
       y="72.037621"
       id="text9369"><tspan
         sodipodi:role="line"
         id="tspan9367"
         x="157.5533"
         y="72.037621"
         style="text-align:center;text-anchor:middle;stroke-width:0.26458332px">Take another card and give it</tspan><tspan
         sodipodi:role="line"
         x="157.5533"
         y="78.652206"
         style="text-align:center;text-anchor:middle;stroke-width:0.26458332px"
         id="tspan9425">to the player on your right.</tspan></text>
    <text
       id="text9375"
       y="77.594894"
       x="52.537788"
       style="font-style:normal;font-weight:normal;font-size:3.96875px;line-height:6.61458302px;font-family:sans-serif;letter-spacing:0px;word-spacing:0px;fill:#000000;fill-opacity:1;stroke:none;stroke-width:0.26458332px;stroke-linecap:butt;stroke-linejoin:miter;stroke-opacity:1"
       xml:space="preserve"><tspan
         style="text-align:center;text-anchor:middle;stroke-width:0.26458332px"
         y="77.594894"
         x="52.537788"
         id="tspan9373"
         sodipodi:role="line">Swap place with the player on your right.</tspan></text>
    <text
       id="text9381"
       y="126.59489"
       x="52.537788"
       style="font-style:normal;font-weight:normal;font-size:3.96875px;line-height:6.61458302px;font-family:sans-serif;letter-spacing:0px;word-spacing:0px;fill:#000000;fill-opacity:1;stroke:none;stroke-width:0.26458332px;stroke-linecap:butt;stroke-linejoin:miter;stroke-opacity:1"
       xml:space="preserve"><tspan
         style="text-align:center;text-anchor:middle;stroke-width:0.26458332px"
         y="126.59489"
         x="52.537788"
         id="tspan9379"
         sodipodi:role="line">Swap place with the player on your left.</tspan></text>
    <text
       xml:space="preserve"
       style="font-style:normal;font-weight:normal;font-size:3.96875px;line-height:6.61458302px;font-family:sans-serif;letter-spacing:0px;word-spacing:0px;fill:#000000;fill-opacity:1;stroke:none;stroke-width:0.26458332px;stroke-linecap:butt;stroke-linejoin:miter;stroke-opacity:1"
       x="157.55328"
       y="121.53761"
       id="text9387"><tspan
         sodipodi:role="line"
         id="tspan9385"
         x="157.55328"
         y="121.53761"
         style="text-align:center;text-anchor:middle;stroke-width:0.26458332px">Take another card and give it</tspan><tspan
         sodipodi:role="line"
         x="157.55328"
         y="128.15219"
         style="text-align:center;text-anchor:middle;stroke-width:0.26458332px"
         id="tspan9427">to the player on your left.</tspan></text>
    <text
       id="text9393"
       y="175.59489"
       x="157.53778"
       style="font-style:normal;font-weight:normal;font-size:3.96875px;line-height:6.61458302px;font-family:sans-serif;letter-spacing:0px;word-spacing:0px;fill:#000000;fill-opacity:1;stroke:none;stroke-width:0.26458332px;stroke-linecap:butt;stroke-linejoin:miter;stroke-opacity:1"
       xml:space="preserve"><tspan
         style="text-align:center;text-anchor:middle;stroke-width:0.26458332px"
         y="175.59489"
         x="157.53778"
         sodipodi:role="line"
         id="tspan9431">Move 5 spaces forward.</tspan></text>
    <text
       xml:space="preserve"
       style="font-style:normal;font-weight:normal;font-size:3.96875px;line-height:6.61458302px;font-family:sans-serif;letter-spacing:0px;word-spacing:0px;fill:#000000;fill-opacity:1;stroke:none;stroke-width:0.26458332px;stroke-linecap:butt;stroke-linejoin:miter;stroke-opacity:1"
       x="52.537788"
       y="175.59489"
       id="text9399"><tspan
         sodipodi:role="line"
         x="52.537788"
         y="175.59489"
         style="text-align:center;text-anchor:middle;stroke-width:0.26458332px"
         id="tspan9429">Move 3 spaces forward.</tspan></text>
    <text
       xml:space="preserve"
       style="font-style:normal;font-weight:normal;font-size:3.96875px;line-height:6.61458302px;font-family:sans-serif;letter-spacing:0px;word-spacing:0px;fill:#000000;fill-opacity:1;stroke:none;stroke-width:0.26458332px;stroke-linecap:butt;stroke-linejoin:miter;stroke-opacity:1"
       x="52.537788"
       y="224.59489"
       id="text9405"><tspan
         sodipodi:role="line"
         x="52.537788"
         y="224.59489"
         style="text-align:center;text-anchor:middle;stroke-width:0.26458332px"
         id="tspan9433">Move 3 spaces back.</tspan></text>
    <text
       id="text9411"
       y="224.59489"
       x="157.53778"
       style="font-style:normal;font-weight:normal;font-size:3.96875px;line-height:6.61458302px;font-family:sans-serif;letter-spacing:0px;word-spacing:0px;fill:#000000;fill-opacity:1;stroke:none;stroke-width:0.26458332px;stroke-linecap:butt;stroke-linejoin:miter;stroke-opacity:1"
       xml:space="preserve"><tspan
         style="text-align:center;text-anchor:middle;stroke-width:0.26458332px"
         y="224.59489"
         x="157.53778"
         sodipodi:role="line"
         id="tspan9435">Move 5 spaces back.</tspan></text>
    <text
       id="text9423"
       y="273.72955"
       x="52.519379"
       style="font-style:normal;font-weight:normal;font-size:3.96875px;line-height:6.61458302px;font-family:sans-serif;letter-spacing:0px;word-spacing:0px;fill:#000000;fill-opacity:1;stroke:none;stroke-width:0.26458332px;stroke-linecap:butt;stroke-linejoin:miter;stroke-opacity:1"
       xml:space="preserve"><tspan
         style="text-align:center;text-anchor:middle;stroke-width:0.26458332px"
         y="273.72955"
         x="52.519379"
         sodipodi:role="line"
         id="tspan9587">Mix the cards and then take another card.</tspan></text>
    <text
       xml:space="preserve"
       style="font-style:normal;font-weight:normal;font-size:3.96875px;line-height:6.61458302px;font-family:sans-serif;letter-spacing:0px;word-spacing:0px;fill:#000000;fill-opacity:1;stroke:none;stroke-width:0.26458332px;stroke-linecap:butt;stroke-linejoin:miter;stroke-opacity:1"
       x="157.51938"
       y="270.0376"
       id="text9417"><tspan
         sodipodi:role="line"
         id="tspan9415"
         x="157.51938"
         y="270.0376"
         style="text-align:center;text-anchor:middle;stroke-width:0.26458332px">If you just played then play again.</tspan><tspan
         sodipodi:role="line"
         x="157.51938"
         y="276.65219"
         style="text-align:center;text-anchor:middle;stroke-width:0.26458332px"
         id="tspan873">Otherwise play twice.</tspan></text>
    <g
       aria-label="!"
       transform="rotate(90,0.26458333,-0.26458333)"
       style="font-style:normal;font-weight:normal;font-size:10.58333302px;line-height:0;font-family:sans-serif;letter-spacing:0px;word-spacing:0px;fill:#000000;fill-opacity:1;stroke:none;stroke-width:0.26458332"
       id="text4666">
      <path
         id="path4700"
         style="font-style:normal;font-variant:normal;font-weight:normal;font-stretch:normal;font-size:3.52777767px;font-family:D050000L;-inkscape-font-specification:D050000L;stroke-width:0.26458332"
         d="m 3.1575143,-104.95945 -0.3386666,-0.38806 1.474611,-0.19402 c -0.254,-0.14464 -0.4868333,-0.2152 -0.7055555,-0.2152 -0.049389,0 -0.1128889,0.004 -0.1763889,0.007 l -0.9348611,0.0529 c -0.1728611,-0.16227 -0.2751666,-0.23989 -0.3880555,-0.28575 -0.2293056,-0.0882 -0.2363611,-0.0917 -0.2363611,-0.127 0,-0.0106 0.00353,-0.0247 0.010583,-0.0423 0.045861,-0.0917 0.056445,-0.12347 0.056445,-0.17992 0,-0.20108 -0.1940278,-0.381 -0.4092223,-0.381 -0.1622777,0 -0.2928055,0.13053 -0.2928055,0.28928 0,0.17639 0.1411111,0.32103 0.3668889,0.37747 l 0.1940277,0.0459 c 0.1975556,0.0459 0.4233334,0.22225 0.5150556,0.39864 -0.1199445,0.12348 -0.3033889,0.2152 -0.4303889,0.2152 -0.056444,0 -0.1411111,-0.0106 -0.2398889,-0.0388 -0.084667,-0.0212 -0.15875,-0.0317 -0.22225,-0.0317 -0.15875,0 -0.2963333,0.13759 -0.2963333,0.29634 0,0.19755 0.1869722,0.37394 0.3986389,0.37394 0.1905,0 0.3245555,-0.127 0.3245555,-0.30692 0,-0.0247 -0.00353,-0.0423 -0.00706,-0.06 -0.010583,-0.0494 -0.017639,-0.0811 -0.017639,-0.0917 0,-0.0282 0.03175,-0.0529 0.067028,-0.0494 l 0.1905,0.004 c 0.010583,0 0.052917,-0.004 0.1199444,-0.0106 l 0.2293055,-0.0212 c 0.00706,-0.004 0.03175,-0.004 0.067028,-0.0106 l 0.3563056,0.40217 z m -1.6368888,-1.65453 c 0.1481666,0 0.2928055,0.13406 0.2928055,0.26811 0,0.11289 -0.077611,0.19756 -0.1728611,0.19756 -0.15875,0 -0.3210278,-0.13759 -0.3210278,-0.26811 0,-0.10936 0.091722,-0.19756 0.2010834,-0.19756 z m -0.088194,1.25589 c 0.1658056,0 0.2928056,0.11289 0.2928056,0.26106 0,0.11994 -0.098778,0.21519 -0.2187222,0.21519 -0.1552223,0 -0.2998611,-0.13406 -0.2998611,-0.27517 0,-0.11289 0.1023055,-0.20108 0.2257777,-0.20108 z"
         inkscape:connector-curvature="0" />
    </g>
    <g
       aria-label="!"
       style="font-style:normal;font-weight:normal;font-size:10.58333302px;line-height:0;font-family:sans-serif;letter-spacing:0px;word-spacing:0px;fill:#000000;fill-opacity:1;stroke:none;stroke-width:0.26458332"
       id="text4666-3"
       transform="translate(0.06108459)">
      <path
         id="path4696"
         style="font-style:normal;font-variant:normal;font-weight:normal;font-stretch:normal;font-size:3.52777767px;font-family:D050000L;-inkscape-font-specification:D050000L;stroke-width:0.26458332"
         d="M 2.5212495,49.570147 2.1825828,49.182092 3.6571939,48.988064 c -0.254,-0.144639 -0.4868333,-0.215194 -0.7055555,-0.215194 -0.049389,0 -0.1128889,0.0035 -0.1763889,0.0071 L 1.8403884,48.83289 C 1.6675273,48.670612 1.5652217,48.593001 1.4523329,48.54714 1.2230273,48.45895 1.2159717,48.45542 1.2159717,48.42014 c 0,-0.01058 0.00353,-0.02469 0.010583,-0.04233 0.045861,-0.09172 0.056444,-0.123473 0.056444,-0.179917 0,-0.201083 -0.1940277,-0.381 -0.40922219,-0.381 -0.16227777,0 -0.29280554,0.130528 -0.29280554,0.289278 0,0.176389 0.1411111,0.321027 0.36688887,0.377472 l 0.19402776,0.04586 c 0.1975556,0.04586 0.4233333,0.22225 0.5150556,0.398639 -0.1199445,0.123472 -0.3033889,0.215194 -0.4303889,0.215194 -0.056445,0 -0.1411111,-0.01058 -0.2398889,-0.03881 -0.0846667,-0.02117 -0.15875,-0.03175 -0.22225,-0.03175 -0.15874999,0 -0.29633332,0.137583 -0.29633332,0.296333 0,0.197556 0.18697222,0.373944 0.39863888,0.373944 0.19050004,0 0.32455554,-0.127 0.32455554,-0.306916 0,-0.0247 -0.00353,-0.04233 -0.00706,-0.05997 -0.010583,-0.04939 -0.017639,-0.08114 -0.017639,-0.09172 0,-0.02822 0.03175,-0.05292 0.067028,-0.04939 l 0.1905,0.0035 c 0.010583,0 0.052917,-0.0035 0.1199445,-0.01058 l 0.2293055,-0.02117 c 0.00706,-0.0035 0.03175,-0.0035 0.067028,-0.01058 L 2.1966939,49.59837 Z M 0.88436065,47.91562 c 0.14816665,0 0.29280555,0.134055 0.29280555,0.268111 0,0.112889 -0.077611,0.197555 -0.1728611,0.197555 -0.15875001,0 -0.32102778,-0.137583 -0.32102778,-0.268111 0,-0.109361 0.0917222,-0.197555 0.20108333,-0.197555 z m -0.0881944,1.255888 c 0.16580555,0 0.29280555,0.112889 0.29280555,0.261056 0,0.119944 -0.0987777,0.215194 -0.21872222,0.215194 -0.15522221,0 -0.2998611,-0.134055 -0.2998611,-0.275166 0,-0.112889 0.10230555,-0.201084 0.22577777,-0.201084 z"
         inkscape:connector-curvature="0" />
    </g>
    <g
       transform="translate(0.06108459,49.557531)"
       aria-label="!"
       style="font-style:normal;font-weight:normal;font-size:10.58333302px;line-height:0;font-family:sans-serif;letter-spacing:0px;word-spacing:0px;fill:#000000;fill-opacity:1;stroke:none;stroke-width:0.26458332"
       id="text4666-3-9">
      <path
         inkscape:connector-curvature="0"
         id="path4696-6"
         style="font-style:normal;font-variant:normal;font-weight:normal;font-stretch:normal;font-size:3.52777767px;font-family:D050000L;-inkscape-font-specification:D050000L;stroke-width:0.26458332"
         d="M 2.5212495,49.570147 2.1825828,49.182092 3.6571939,48.988064 c -0.254,-0.144639 -0.4868333,-0.215194 -0.7055555,-0.215194 -0.049389,0 -0.1128889,0.0035 -0.1763889,0.0071 L 1.8403884,48.83289 C 1.6675273,48.670612 1.5652217,48.593001 1.4523329,48.54714 1.2230273,48.45895 1.2159717,48.45542 1.2159717,48.42014 c 0,-0.01058 0.00353,-0.02469 0.010583,-0.04233 0.045861,-0.09172 0.056444,-0.123473 0.056444,-0.179917 0,-0.201083 -0.1940277,-0.381 -0.40922219,-0.381 -0.16227777,0 -0.29280554,0.130528 -0.29280554,0.289278 0,0.176389 0.1411111,0.321027 0.36688887,0.377472 l 0.19402776,0.04586 c 0.1975556,0.04586 0.4233333,0.22225 0.5150556,0.398639 -0.1199445,0.123472 -0.3033889,0.215194 -0.4303889,0.215194 -0.056445,0 -0.1411111,-0.01058 -0.2398889,-0.03881 -0.0846667,-0.02117 -0.15875,-0.03175 -0.22225,-0.03175 -0.15874999,0 -0.29633332,0.137583 -0.29633332,0.296333 0,0.197556 0.18697222,0.373944 0.39863888,0.373944 0.19050004,0 0.32455554,-0.127 0.32455554,-0.306916 0,-0.0247 -0.00353,-0.04233 -0.00706,-0.05997 -0.010583,-0.04939 -0.017639,-0.08114 -0.017639,-0.09172 0,-0.02822 0.03175,-0.05292 0.067028,-0.04939 l 0.1905,0.0035 c 0.010583,0 0.052917,-0.0035 0.1199445,-0.01058 l 0.2293055,-0.02117 c 0.00706,-0.0035 0.03175,-0.0035 0.067028,-0.01058 L 2.1966939,49.59837 Z M 0.88436065,47.91562 c 0.14816665,0 0.29280555,0.134055 0.29280555,0.268111 0,0.112889 -0.077611,0.197555 -0.1728611,0.197555 -0.15875001,0 -0.32102778,-0.137583 -0.32102778,-0.268111 0,-0.109361 0.0917222,-0.197555 0.20108333,-0.197555 z m -0.0881944,1.255888 c 0.16580555,0 0.29280555,0.112889 0.29280555,0.261056 0,0.119944 -0.0987777,0.215194 -0.21872222,0.215194 -0.15522221,0 -0.2998611,-0.134055 -0.2998611,-0.275166 0,-0.112889 0.10230555,-0.201084 0.22577777,-0.201084 z" />
    </g>
    <g
       transform="translate(0.06108459,99.009683)"
       aria-label="!"
       style="font-style:normal;font-weight:normal;font-size:10.58333302px;line-height:0;font-family:sans-serif;letter-spacing:0px;word-spacing:0px;fill:#000000;fill-opacity:1;stroke:none;stroke-width:0.26458332"
       id="text4666-3-2">
      <path
         inkscape:connector-curvature="0"
         id="path4696-1"
         style="font-style:normal;font-variant:normal;font-weight:normal;font-stretch:normal;font-size:3.52777767px;font-family:D050000L;-inkscape-font-specification:D050000L;stroke-width:0.26458332"
         d="M 2.5212495,49.570147 2.1825828,49.182092 3.6571939,48.988064 c -0.254,-0.144639 -0.4868333,-0.215194 -0.7055555,-0.215194 -0.049389,0 -0.1128889,0.0035 -0.1763889,0.0071 L 1.8403884,48.83289 C 1.6675273,48.670612 1.5652217,48.593001 1.4523329,48.54714 1.2230273,48.45895 1.2159717,48.45542 1.2159717,48.42014 c 0,-0.01058 0.00353,-0.02469 0.010583,-0.04233 0.045861,-0.09172 0.056444,-0.123473 0.056444,-0.179917 0,-0.201083 -0.1940277,-0.381 -0.40922219,-0.381 -0.16227777,0 -0.29280554,0.130528 -0.29280554,0.289278 0,0.176389 0.1411111,0.321027 0.36688887,0.377472 l 0.19402776,0.04586 c 0.1975556,0.04586 0.4233333,0.22225 0.5150556,0.398639 -0.1199445,0.123472 -0.3033889,0.215194 -0.4303889,0.215194 -0.056445,0 -0.1411111,-0.01058 -0.2398889,-0.03881 -0.0846667,-0.02117 -0.15875,-0.03175 -0.22225,-0.03175 -0.15874999,0 -0.29633332,0.137583 -0.29633332,0.296333 0,0.197556 0.18697222,0.373944 0.39863888,0.373944 0.19050004,0 0.32455554,-0.127 0.32455554,-0.306916 0,-0.0247 -0.00353,-0.04233 -0.00706,-0.05997 -0.010583,-0.04939 -0.017639,-0.08114 -0.017639,-0.09172 0,-0.02822 0.03175,-0.05292 0.067028,-0.04939 l 0.1905,0.0035 c 0.010583,0 0.052917,-0.0035 0.1199445,-0.01058 l 0.2293055,-0.02117 c 0.00706,-0.0035 0.03175,-0.0035 0.067028,-0.01058 L 2.1966939,49.59837 Z M 0.88436065,47.91562 c 0.14816665,0 0.29280555,0.134055 0.29280555,0.268111 0,0.112889 -0.077611,0.197555 -0.1728611,0.197555 -0.15875001,0 -0.32102778,-0.137583 -0.32102778,-0.268111 0,-0.109361 0.0917222,-0.197555 0.20108333,-0.197555 z m -0.0881944,1.255888 c 0.16580555,0 0.29280555,0.112889 0.29280555,0.261056 0,0.119944 -0.0987777,0.215194 -0.21872222,0.215194 -0.15522221,0 -0.2998611,-0.134055 -0.2998611,-0.275166 0,-0.112889 0.10230555,-0.201084 0.22577777,-0.201084 z" />
    </g>
    <g
       transform="translate(0.06108459,148.49645)"
       aria-label="!"
       style="font-style:normal;font-weight:normal;font-size:10.58333302px;line-height:0;font-family:sans-serif;letter-spacing:0px;word-spacing:0px;fill:#000000;fill-opacity:1;stroke:none;stroke-width:0.26458332"
       id="text4666-3-7">
      <path
         inkscape:connector-curvature="0"
         id="path4696-8"
         style="font-style:normal;font-variant:normal;font-weight:normal;font-stretch:normal;font-size:3.52777767px;font-family:D050000L;-inkscape-font-specification:D050000L;stroke-width:0.26458332"
         d="M 2.5212495,49.570147 2.1825828,49.182092 3.6571939,48.988064 c -0.254,-0.144639 -0.4868333,-0.215194 -0.7055555,-0.215194 -0.049389,0 -0.1128889,0.0035 -0.1763889,0.0071 L 1.8403884,48.83289 C 1.6675273,48.670612 1.5652217,48.593001 1.4523329,48.54714 1.2230273,48.45895 1.2159717,48.45542 1.2159717,48.42014 c 0,-0.01058 0.00353,-0.02469 0.010583,-0.04233 0.045861,-0.09172 0.056444,-0.123473 0.056444,-0.179917 0,-0.201083 -0.1940277,-0.381 -0.40922219,-0.381 -0.16227777,0 -0.29280554,0.130528 -0.29280554,0.289278 0,0.176389 0.1411111,0.321027 0.36688887,0.377472 l 0.19402776,0.04586 c 0.1975556,0.04586 0.4233333,0.22225 0.5150556,0.398639 -0.1199445,0.123472 -0.3033889,0.215194 -0.4303889,0.215194 -0.056445,0 -0.1411111,-0.01058 -0.2398889,-0.03881 -0.0846667,-0.02117 -0.15875,-0.03175 -0.22225,-0.03175 -0.15874999,0 -0.29633332,0.137583 -0.29633332,0.296333 0,0.197556 0.18697222,0.373944 0.39863888,0.373944 0.19050004,0 0.32455554,-0.127 0.32455554,-0.306916 0,-0.0247 -0.00353,-0.04233 -0.00706,-0.05997 -0.010583,-0.04939 -0.017639,-0.08114 -0.017639,-0.09172 0,-0.02822 0.03175,-0.05292 0.067028,-0.04939 l 0.1905,0.0035 c 0.010583,0 0.052917,-0.0035 0.1199445,-0.01058 l 0.2293055,-0.02117 c 0.00706,-0.0035 0.03175,-0.0035 0.067028,-0.01058 L 2.1966939,49.59837 Z M 0.88436065,47.91562 c 0.14816665,0 0.29280555,0.134055 0.29280555,0.268111 0,0.112889 -0.077611,0.197555 -0.1728611,0.197555 -0.15875001,0 -0.32102778,-0.137583 -0.32102778,-0.268111 0,-0.109361 0.0917222,-0.197555 0.20108333,-0.197555 z m -0.0881944,1.255888 c 0.16580555,0 0.29280555,0.112889 0.29280555,0.261056 0,0.119944 -0.0987777,0.215194 -0.21872222,0.215194 -0.15522221,0 -0.2998611,-0.134055 -0.2998611,-0.275166 0,-0.112889 0.10230555,-0.201084 0.22577777,-0.201084 z" />
    </g>
    <g
       transform="translate(0.06108459,197.99428)"
       aria-label="!"
       style="font-style:normal;font-weight:normal;font-size:10.58333302px;line-height:0;font-family:sans-serif;letter-spacing:0px;word-spacing:0px;fill:#000000;fill-opacity:1;stroke:none;stroke-width:0.26458332"
       id="text4666-3-5">
      <path
         inkscape:connector-curvature="0"
         id="path4696-7"
         style="font-style:normal;font-variant:normal;font-weight:normal;font-stretch:normal;font-size:3.52777767px;font-family:D050000L;-inkscape-font-specification:D050000L;stroke-width:0.26458332"
         d="M 2.5212495,49.570147 2.1825828,49.182092 3.6571939,48.988064 c -0.254,-0.144639 -0.4868333,-0.215194 -0.7055555,-0.215194 -0.049389,0 -0.1128889,0.0035 -0.1763889,0.0071 L 1.8403884,48.83289 C 1.6675273,48.670612 1.5652217,48.593001 1.4523329,48.54714 1.2230273,48.45895 1.2159717,48.45542 1.2159717,48.42014 c 0,-0.01058 0.00353,-0.02469 0.010583,-0.04233 0.045861,-0.09172 0.056444,-0.123473 0.056444,-0.179917 0,-0.201083 -0.1940277,-0.381 -0.40922219,-0.381 -0.16227777,0 -0.29280554,0.130528 -0.29280554,0.289278 0,0.176389 0.1411111,0.321027 0.36688887,0.377472 l 0.19402776,0.04586 c 0.1975556,0.04586 0.4233333,0.22225 0.5150556,0.398639 -0.1199445,0.123472 -0.3033889,0.215194 -0.4303889,0.215194 -0.056445,0 -0.1411111,-0.01058 -0.2398889,-0.03881 -0.0846667,-0.02117 -0.15875,-0.03175 -0.22225,-0.03175 -0.15874999,0 -0.29633332,0.137583 -0.29633332,0.296333 0,0.197556 0.18697222,0.373944 0.39863888,0.373944 0.19050004,0 0.32455554,-0.127 0.32455554,-0.306916 0,-0.0247 -0.00353,-0.04233 -0.00706,-0.05997 -0.010583,-0.04939 -0.017639,-0.08114 -0.017639,-0.09172 0,-0.02822 0.03175,-0.05292 0.067028,-0.04939 l 0.1905,0.0035 c 0.010583,0 0.052917,-0.0035 0.1199445,-0.01058 l 0.2293055,-0.02117 c 0.00706,-0.0035 0.03175,-0.0035 0.067028,-0.01058 L 2.1966939,49.59837 Z M 0.88436065,47.91562 c 0.14816665,0 0.29280555,0.134055 0.29280555,0.268111 0,0.112889 -0.077611,0.197555 -0.1728611,0.197555 -0.15875001,0 -0.32102778,-0.137583 -0.32102778,-0.268111 0,-0.109361 0.0917222,-0.197555 0.20108333,-0.197555 z m -0.0881944,1.255888 c 0.16580555,0 0.29280555,0.112889 0.29280555,0.261056 0,0.119944 -0.0987777,0.215194 -0.21872222,0.215194 -0.15522221,0 -0.2998611,-0.134055 -0.2998611,-0.275166 0,-0.112889 0.10230555,-0.201084 0.22577777,-0.201084 z" />
    </g>
  </g>
</svg>
